Patient4_TMGait_0pt4_03_left_29_EMG.mot
version=1
nRows=16
nColumns=33
inDegrees=no
endheader
time	1LAddLong	2LGlutMax	3LGlutMed	4LIliopsoas	5LSemiMemb	6LBicFemLong	7LRecFem	8LVastMed	9LVastLat	10LGasMed	11LTibAnt	12lTibPost	13LPeroneusLong	14LSol	15LExtDigLong	16LFlexDigLong	17RAddLong	18RGlutMax	19RGlutMed	20RIliopsoas	21RSemiMemb	22RBicFemLong	23RRecFem	24RVastMed	25RVastLat	26RGasMed	27RTibAnt	28RTibPost	29RPeroneusLong	30RSol	31RExtDigLong	32RFlexDigLong
39.618	0.005341	0.025787	0.011902	0.010071	0.003357	0.005188	-0.013123	0.002899	0.078125	-0.016632	0.010071	-0.000305	0.006256	-0.089417	-0.036163	0	-0.010834	-0.1413	0.25955	0.039673	0.044403	-0.021667	-0.094452	-0.049591	-0.026703	0.006409	-0.013275	-0.007782	-0.20844	-0.050507	0.000153	-0.019684
39.619	0.010223	0.019531	0.005493	0.00061	0.016022	0.004272	-0.041962	-0.00061	0.065765	-0.026703	0.009308	0.003204	0.010071	-0.088196	-0.007935	-0.013885	-0.004425	-0.14114	-0.092926	-0.047302	0.096436	-0.049591	-0.11978	-0.049286	-0.039368	0.014954	0.003662	-0.017242	0.41199	0.080414	-0.000305	-0.019226
39.62	0.00412	0.010986	-0.00946	-0.009308	-0.039215	-0.050201	-0.027313	-0.002747	0.071869	-0.023499	0.01358	0.002441	-0.004272	-0.080566	-0.007324	-0.022278	0.015411	-0.085907	0.20096	-0.1329	0.1651	-0.041351	-0.10788	-0.066986	-0.065308	-0.038452	0.04425	-0.018768	0.32867	0.14008	0.001221	-0.011292
39.621	0.006256	0.023651	-0.019989	0.022736	-0.068359	-0.10269	-0.024719	-0.004883	0.068207	-0.035706	0.010529	0.000916	-0.00412	-0.089569	0.002136	-0.013733	0.02182	-0.14282	-0.4184	-0.13794	0.10162	0.032501	-0.056763	-0.072327	-0.095367	-0.058289	0.013275	-0.02182	0.14114	0.027771	-0.001526	-0.013885
39.622	0.015717	0.024109	-0.029144	-0.00412	-0.034485	-0.11643	-0.036621	0.005188	0.063324	-0.027618	0.007629	0.006866	-0.005798	-0.085449	-0.003662	-0.018005	0.009613	-0.17624	-0.45914	-0.095215	-0.084534	0.098572	0.026855	-0.045929	-0.12695	-0.002594	-0.053101	-0.002747	0.57419	-0.098114	-0.002441	-0.011902
39.623	0.012207	0.011597	-0.020142	-0.004883	0.04837	-0.086517	-0.010681	0.000763	0.065002	-0.038605	0.009308	0.002899	-0.012817	-0.075378	0.001221	-0.010834	-0.004272	-0.16037	-0.076599	-0.005798	-0.015411	0.055695	-0.007629	-0.031586	-0.027618	0.036774	0.028687	0.049133	-0.85419	-0.077667	-0.002594	-0.017395
39.624	0.011444	0.019073	-0.016632	-0.005798	0.07843	-0.055847	-0.002747	0.003052	0.063629	-0.029144	0.011444	0.003204	-0.017853	-0.080109	-0.001221	-0.00412	-0.001526	-0.16998	-0.13931	0.094604	0.058136	0.028229	-0.071564	0.013275	0.12405	0.021973	0.032043	0.003052	-0.95367	0.035248	-0.003052	-0.017548
39.625	0.005798	0.045319	-0.03479	-0.007935	0.053711	-0.019836	-0.016632	-0.000153	0.05188	-0.024719	0.005646	0.003815	-0.012665	-0.068665	0.007477	-0.005951	0.001984	-0.055695	-0.28915	0.12238	0.029907	-0.01358	0.018158	0.014343	0.06485	-0.006256	0.014191	-0.011749	-0.65765	-0.020599	-0.002289	-0.028076
39.626	0.008087	-0.006714	-0.03418	0.01358	0.01236	-0.024414	-0.016937	0.004272	0.049133	-0.018463	0.017242	0.007019	-0.003662	-0.08728	0.007935	-0.005188	-0.007172	-0.065308	-0.11032	0.092773	0.027466	-0.011444	0.075531	0.007935	-0.001984	-0.005035	-0.005646	-0.014038	-0.71594	-0.11704	-0.005493	-0.015259
39.627	0.008545	0.012207	-0.030823	0.009155	-0.008392	-0.032349	-0.017395	0.005035	0.046997	-0.014496	0.005035	0.010376	-0.012054	-0.078583	0.008392	-0.006866	-0.001068	-0.14267	0.16953	0.036774	0.031586	0.026398	-0.078888	-0.001221	0.020752	-0.011292	0.027771	-0.007477	-0.858	-0.084839	-0.00351	-0.009155
39.628	0.00061	0.035553	-0.103	0.016937	0.01297	-0.02243	-0.022125	-0.002899	0.046234	-0.021057	0.003204	0.011902	-0.010071	-0.10407	0.002441	-0.012512	0.000763	-0.16007	0.50064	0.084991	0.015106	0.034027	-0.096283	0.024567	0.035095	-0.001678	0.028229	-0.012207	0.032959	-0.036011	-0.003967	-0.00946
39.629	-0.000763	0.010529	-0.082855	-0.00885	0.016632	0.011444	-0.028534	0.003357	0.059662	-0.019379	-0.031433	0.003204	-0.01709	-0.099945	0.00412	-0.021362	0.002136	-0.13077	0.11673	0.092926	0.017395	0.022278	0.00061	-0.009613	0.026093	-0.015717	0.072479	-0.009003	1.6153	-0.23972	-0.001373	-0.00885
39.63	0.003357	0.006866	-0.050659	-0.001984	0.011139	0.024109	-0.013275	0.007324	0.057831	-0.031586	-0.046844	0.009766	-0.019989	-0.10986	0.011902	-0.012665	0.000458	-0.11765	-0.12192	-0.01709	0.020905	0.015106	0.040588	-0.057526	0.004578	-0.002289	0.064697	-0.015259	2.028	-0.36026	-0.001526	-0.011902
39.631	0.006104	0.019226	-0.043182	0.012207	0.027161	0.005341	-0.030212	0.002289	0.057373	-0.04425	-0.040436	0.007477	0.000916	-0.11627	0.000305	-0.02594	0.005646	-0.10391	0.00412	-0.098724	0.014343	0.006256	0.004425	-0.043182	-0.023193	-0.019226	0.021362	-0.00473	1.5021	0.11398	-0.001373	-0.003967
39.632	0.009308	0.007019	0.083618	-0.011292	-0.024872	-0.001221	-0.036163	0	0.057983	-0.032654	-0.039978	0.007172	0.010681	-0.090485	-0.005493	-0.006866	0.003052	-0.1619	-0.84274	-0.065308	0.016022	0.026245	0.011292	-0.028381	-0.069427	-0.027466	-0.046844	-0.001984	-0.25101	0.17914	-0.003052	-0.006866
39.633	0.004578	-0.008698	0.12329	-0.006561	-0.043335	0.011749	-0.023499	0.006256	0.061493	-0.031128	-0.010071	0.010529	0.017548	-0.09491	-0.003204	-0.009766	0.001373	-0.1442	-1.0622	-0.074615	0.002747	0.008392	-0.039215	-0.004425	-0.016479	-0.026093	-0.036774	-0.012512	-1.8738	0.097656	0.001984	-0.001678
